<svg width="73.99999999999999" height="73.99999999999999" xmlns="http://www.w3.org/2000/svg">

 <g>
  <title>background</title>
  <rect fill="none" id="canvas_background" height="402" width="582" y="-1" x="-1"/>
 </g>
 <g>
  <title>Layer 1</title>
  <path fill="#2b3033" id="svg_2" d="m56.799999,35.200001c0,-5.6 -2.399998,-11 -6.599998,-14.700001c-4.200001,-3.700001 -9.799999,-5.5 -15.400002,-4.9c-9.099998,1 -16.5,8.4 -17.4,17.499998c-0.6,6.100002 1.5,12.100002 5.9,16.400002c1.6,1.599998 2.800001,3.400002 3.5,5.400002c-0.799999,0.199997 -1.4,1 -1.4,1.899998c0,1.100002 0.9,2 2,2l0,2.299999c-1.1,0 -2,0.900002 -2,2s0.9,2 2,2l0,0.800003c0,4.199997 4,7.199997 9.699999,7.199997c5.700001,0 9.700001,-2.900002 9.700001,-7.199997l0,-0.800003c1.100002,0 2,-0.900002 2,-2s-0.899998,-2 -2,-2l0,-2.299999c1.100002,0 2,-0.899998 2,-2c0,-0.899998 -0.599998,-1.700001 -1.399998,-1.899998c0.699997,-2 1.899998,-3.800003 3.5,-5.400002c3.699997,-3.799999 5.899998,-8.900002 5.899998,-14.299999zm-14.099998,23.5l0,2.299999l-11.400002,0l0,-2.299999l11.400002,0zm-5.700001,10.299999c-2.299999,0 -5.700001,-0.800003 -5.700001,-3.199997l0,-0.800003l11.400002,0l0,0.800003c0,2.399994 -3.400002,3.199997 -5.700001,3.199997zm6.099998,-14.299999l-12.199999,0c-0.799999,-3 -2.5,-5.900002 -4.9,-8.200001c-3.5,-3.400002 -5.299999,-8.200001 -4.700001,-13.099998c0.800001,-7.300001 6.6,-13.200001 13.900002,-14.000002c0.599998,-0.1 1.200001,-0.1 1.799999,-0.1c3.900002,0 7.599998,1.400002 10.5,4c3.299999,3 5.299999,7.300001 5.299999,11.799999c0,4.300003 -1.700001,8.400002 -4.899998,11.400002c-2.400002,2.299999 -4,5.200001 -4.800003,8.200001z" class="st0"/>
  <path fill="#2b3033" id="svg_3" d="m37,11c1.099998,0 2,-0.9 2,-2l0,-6c0,-1.1 -0.900002,-2 -2,-2s-2,0.9 -2,2l0,6c0,1.1 0.900002,2 2,2z" class="st0"/>
  <path fill="#2b3033" id="svg_4" d="m17.1,18.1c0.4,0.4 0.9,0.6 1.4,0.6s1,-0.200001 1.4,-0.6c0.800001,-0.800001 0.800001,-2 0,-2.8l-4.2,-4.3c-0.8,-0.8 -2,-0.8 -2.8,0s-0.799999,2 0,2.8l4.200001,4.3z" class="st0"/>
  <path fill="#2b3033" id="svg_5" d="m12.9,35.200001c0,-1.100002 -0.9,-2 -2,-2l-6,0c-1.1,0 -2,0.899998 -2,2s0.9,2 2,2l6,0c1.1,0 2,-0.900002 2,-2z" class="st0"/>
  <path fill="#2b3033" id="svg_6" d="m17.1,52.200001l-4.3,4.299999c-0.8,0.799999 -0.8,2 0,2.799999c0.4,0.400002 0.9,0.600002 1.4,0.600002s1,-0.200001 1.400001,-0.600002l4.299999,-4.299999c0.800001,-0.799999 0.800001,-2 0,-2.799999s-2,-0.700001 -2.799999,0z" class="st0"/>
  <path fill="#2b3033" id="svg_7" d="m56.900002,52.200001c-0.800003,-0.799999 -2,-0.799999 -2.800003,0s-0.799999,2 0,2.799999l4.300003,4.299999c0.399998,0.400002 0.899998,0.600002 1.399998,0.600002s1,-0.200001 1.400002,-0.600002c0.799999,-0.799999 0.799999,-2 0,-2.799999l-4.299999,-4.299999z" class="st0"/>
  <path fill="#2b3033" id="svg_8" d="m69.199997,33.200001l-5.999996,0c-1.100002,0 -2,0.899998 -2,2s0.899998,2 2,2l5.999996,0c1.100006,0 2,-0.900002 2,-2s-0.899994,-2 -2,-2z" class="st0"/>
  <path fill="#2b3033" id="svg_9" d="m55.5,18.700001c0.5,0 1,-0.200001 1.400002,-0.6l4.299999,-4.3c0.799999,-0.8 0.799999,-2 0,-2.8s-2,-0.8 -2.799999,0l-4.300003,4.3c-0.799999,0.8 -0.799999,1.999999 0,2.8c0.400002,0.4 0.900002,0.6 1.400002,0.6z" class="st0"/>
 </g>
</svg>